%FSLAX43Y43*%
%MOMM*%
G71*
G01*
G75*
G04 Layer_Physical_Order=1*
G04 Layer_Color=255*
%ADD10R,2.000X1.250*%
%ADD11R,1.250X0.600*%
%ADD12R,1.600X0.900*%
G04:AMPARAMS|DCode=13|XSize=1.56mm|YSize=0.41mm|CornerRadius=0.051mm|HoleSize=0mm|Usage=FLASHONLY|Rotation=0.000|XOffset=0mm|YOffset=0mm|HoleType=Round|Shape=RoundedRectangle|*
%AMROUNDEDRECTD13*
21,1,1.560,0.308,0,0,0.0*
21,1,1.458,0.410,0,0,0.0*
1,1,0.102,0.729,-0.154*
1,1,0.102,-0.729,-0.154*
1,1,0.102,-0.729,0.154*
1,1,0.102,0.729,0.154*
%
%ADD13ROUNDEDRECTD13*%
%ADD14R,0.900X1.600*%
%ADD15R,1.900X1.900*%
%ADD16R,1.450X1.300*%
%ADD17R,1.600X1.400*%
%ADD18R,0.400X1.350*%
%ADD19C,0.254*%
%ADD20C,1.500*%
%ADD21R,1.500X1.500*%
%ADD22R,1.500X1.500*%
%ADD23C,1.000*%
%ADD24C,0.800*%
%ADD25C,0.700*%
D10*
X106000Y65250D02*
D03*
Y68625D02*
D03*
X114500Y65750D02*
D03*
Y62375D02*
D03*
X102000Y83250D02*
D03*
Y86625D02*
D03*
D11*
X111000Y66300D02*
D03*
Y64500D02*
D03*
X98500Y87300D02*
D03*
Y85500D02*
D03*
D12*
X102000Y67950D02*
D03*
Y65250D02*
D03*
D13*
X105242Y80268D02*
D03*
Y79618D02*
D03*
Y78968D02*
D03*
Y78318D02*
D03*
Y77668D02*
D03*
Y77018D02*
D03*
Y76368D02*
D03*
Y75718D02*
D03*
Y75068D02*
D03*
Y74418D02*
D03*
X99482D02*
D03*
Y75068D02*
D03*
Y75718D02*
D03*
Y76368D02*
D03*
Y77018D02*
D03*
Y77668D02*
D03*
Y78318D02*
D03*
Y78968D02*
D03*
Y79618D02*
D03*
Y80268D02*
D03*
D14*
X92300Y90500D02*
D03*
X95000D02*
D03*
X93700Y63000D02*
D03*
X91000D02*
D03*
D15*
X102800Y98500D02*
D03*
X105200D02*
D03*
D16*
X107425D02*
D03*
X100575D02*
D03*
D17*
X100800Y96050D02*
D03*
X107200D02*
D03*
D18*
X102700Y95825D02*
D03*
X103350D02*
D03*
X104000D02*
D03*
X104650D02*
D03*
X105300D02*
D03*
D19*
X105250Y84750D02*
X106000D01*
X103375Y86625D02*
X105250Y84750D01*
X106000Y93500D02*
X109500D01*
X92250Y68250D02*
X93250D01*
X88519Y64519D02*
X92250Y68250D01*
X88519Y62519D02*
Y64519D01*
X91750Y65000D02*
Y66000D01*
X91000Y64250D02*
X91750Y65000D01*
X91000Y63000D02*
Y64250D01*
X98500Y87300D02*
X99550D01*
X100000Y87750D01*
Y89250D01*
X100750Y90000D01*
X101500D01*
X106000Y68625D02*
Y71500D01*
X105250Y72250D02*
X106000Y71500D01*
X104000Y72250D02*
X105250D01*
X101182Y75068D02*
X104000Y72250D01*
X99482Y75068D02*
X101182D01*
X109500Y69000D02*
Y72500D01*
Y69000D02*
X111000Y67500D01*
Y66300D02*
Y67500D01*
X112750Y65750D02*
X114500D01*
X112250Y65250D02*
X112750Y65750D01*
X111250Y65250D02*
X112250D01*
X111000Y65000D02*
X111250Y65250D01*
X111000Y64500D02*
Y65000D01*
X114375Y62500D02*
X114500Y62375D01*
X110250Y62500D02*
X114375D01*
X109250Y61500D02*
X110250Y62500D01*
X108500Y61500D02*
X109250D01*
X112750Y82030D02*
X121750D01*
X112030D02*
X112750D01*
Y81000D02*
Y82030D01*
X112750Y81000D02*
X112750D01*
X105000Y61750D02*
X105050Y61700D01*
Y58750D02*
Y61700D01*
X106000Y67250D02*
Y68625D01*
Y67250D02*
X106250Y67000D01*
X107750D01*
X108500Y66250D01*
Y61500D02*
Y66250D01*
X107500Y60500D02*
X108500Y61500D01*
X107500Y58750D02*
Y60500D01*
X102420Y58750D02*
Y62080D01*
X102000Y62500D02*
X102420Y62080D01*
X102000Y62500D02*
X102000D01*
X102000D02*
Y65250D01*
X95750Y67250D02*
X98250D01*
X95500Y67500D02*
X95750Y67250D01*
X94500Y67500D02*
X95500D01*
X95364Y78000D02*
X95682Y78318D01*
X94500Y78000D02*
X95364D01*
X97000Y66000D02*
X98250Y67250D01*
X96250Y66000D02*
X97000D01*
X96000Y65750D02*
X96250Y66000D01*
X96000Y61250D02*
Y65750D01*
Y61250D02*
X98500Y58750D01*
X99880D01*
X105000Y65250D02*
X106000D01*
X104000Y66250D02*
X105000Y65250D01*
X102750Y66250D02*
X104000D01*
X102000Y67000D02*
X102750Y66250D01*
X102000Y67000D02*
Y67950D01*
X99750Y65250D02*
X102000D01*
X99250Y64750D02*
X99750Y65250D01*
X98250Y64750D02*
X99250D01*
X98175Y80268D02*
X99482D01*
X91321Y87122D02*
X98175Y80268D01*
X83058Y87122D02*
X91321D01*
X97382Y79618D02*
X99482D01*
X92418Y84582D02*
X97382Y79618D01*
X83058Y84582D02*
X92418D01*
X96532Y78968D02*
X99482D01*
X93500Y82000D02*
X96532Y78968D01*
X83100Y82000D02*
X93500D01*
X83058Y82042D02*
X83100Y82000D01*
X95682Y78318D02*
X99482D01*
X94500Y79500D02*
X95682Y78318D01*
X83060Y79500D02*
X94500D01*
X83058Y79502D02*
X83060Y79500D01*
X96668Y77668D02*
X99482D01*
X95962Y76962D02*
X96668Y77668D01*
X83058Y76962D02*
X95962D01*
X97518Y77018D02*
X99482D01*
X83058Y74422D02*
X83136Y74500D01*
X83058Y71882D02*
X83176Y72000D01*
X96500Y76000D02*
X97518Y77018D01*
X94500Y76000D02*
X96500D01*
X93000Y74500D02*
X94500Y76000D01*
X83136Y74500D02*
X93000D01*
X97868Y76368D02*
X99482D01*
X97000Y75500D02*
X97868Y76368D01*
X95000Y75500D02*
X97000D01*
X91382Y71882D02*
X95000Y75500D01*
X98218Y75718D02*
X99482D01*
X97500Y75000D02*
X98218Y75718D01*
X95500Y75000D02*
X97500D01*
X89842Y69342D02*
X95500Y75000D01*
X98107Y75068D02*
X99482D01*
X97039Y74000D02*
X98107Y75068D01*
X95500Y74000D02*
X97039D01*
X88500Y67000D02*
X95500Y74000D01*
X83256Y67000D02*
X88500D01*
X83058Y66802D02*
X83256Y67000D01*
X97564Y72500D02*
X99482Y74418D01*
X95500Y72500D02*
X97564D01*
X87262Y64262D02*
X95500Y72500D01*
X83058Y64262D02*
X87262D01*
X105242Y80268D02*
X107482D01*
X114324Y87110D01*
X121750D01*
X105242Y79618D02*
X107618D01*
X112570Y84570D01*
X121750D01*
X105242Y78968D02*
X108968D01*
X112030Y82030D01*
X105242Y78318D02*
X109068D01*
X110250Y79500D01*
X121740D01*
X121750Y79490D01*
X105242Y77668D02*
X109168D01*
X109886Y76950D01*
X121750D01*
X105242Y77018D02*
X108982D01*
X109750Y76250D01*
X114500D01*
X116340Y74410D01*
X121750D01*
X105242Y76368D02*
X108632D01*
X109750Y75250D01*
X114500D01*
X117880Y71870D01*
X121750D01*
X105242Y75718D02*
X108282D01*
X109500Y74500D01*
X114250D01*
X119500Y69250D01*
X121670D01*
X121750Y69330D01*
X105242Y75068D02*
X107932D01*
X109500Y73500D01*
X113500D01*
X120250Y66750D01*
X121710D01*
X121750Y66790D01*
X105242Y74418D02*
X107582D01*
X109500Y72500D01*
X113500D01*
X119500Y66500D01*
Y64750D02*
Y66500D01*
Y64750D02*
X120000Y64250D01*
X121750D01*
X100250Y83250D02*
X102000D01*
X98500Y85000D02*
X100250Y83250D01*
X98500Y85000D02*
Y85500D01*
X93700Y63000D02*
Y65550D01*
X93250Y66000D02*
X93700Y65550D01*
X93250Y66000D02*
Y68250D01*
X93750Y68750D01*
X98250D01*
X99250Y67750D01*
Y66500D02*
Y67750D01*
X98250Y65500D02*
X99250Y66500D01*
X98250Y64750D02*
Y65500D01*
X87500Y68250D02*
Y69342D01*
X83058D02*
X87500D01*
X89842D01*
X101500Y90000D02*
Y93500D01*
X100800Y94200D02*
X101500Y93500D01*
X101000Y90500D02*
X101500Y90000D01*
X95000Y90500D02*
X101000D01*
X102000Y86625D02*
X103375D01*
X100375D02*
X102000D01*
X100250Y86500D02*
X100375Y86625D01*
X96750Y86500D02*
X100250D01*
X95750Y87500D02*
X96750Y86500D01*
X93250Y87500D02*
X95750D01*
X92300Y88450D02*
X93250Y87500D01*
X92300Y88450D02*
Y90500D01*
X101182Y75068D02*
Y80318D01*
X100250Y81250D02*
X101182Y80318D01*
X99000Y81250D02*
X100250D01*
X96750Y83500D02*
X99000Y81250D01*
X96750Y83500D02*
Y86500D01*
X90750Y71882D02*
Y73250D01*
X83058Y71882D02*
X90750D01*
X91382D01*
X87500Y61500D02*
X88519Y62519D01*
X82000Y61500D02*
X87500D01*
X81000Y62500D02*
X82000Y61500D01*
X81000Y62500D02*
Y71000D01*
X81882Y71882D01*
X83058D01*
X100800Y94200D02*
Y96050D01*
Y97200D01*
X100575Y97425D02*
X100800Y97200D01*
X100575Y97425D02*
Y98500D01*
X102800D01*
X105200D01*
X107425D01*
Y97075D02*
Y98500D01*
X107200Y96850D02*
X107425Y97075D01*
X107200Y96050D02*
Y96850D01*
X105300Y94200D02*
Y95825D01*
Y94200D02*
X106000Y93500D01*
X102175Y95825D02*
X102700D01*
X101950Y96050D02*
X102175Y95825D01*
X100800Y96050D02*
X101950D01*
X85750Y96000D02*
G03*
X85750Y96000I-1000J0D01*
G01*
X122000D02*
G03*
X122000Y96000I-1000J0D01*
G01*
X85750Y58500D02*
G03*
X85750Y58500I-1000J0D01*
G01*
X122250D02*
G03*
X122250Y58500I-1000J0D01*
G01*
X80000Y55000D02*
X125000D01*
Y100000D01*
X80000Y55000D02*
Y100000D01*
X125000D01*
D20*
X99880Y58750D02*
D03*
X102420D02*
D03*
X105050D02*
D03*
X83058Y87122D02*
D03*
Y84582D02*
D03*
Y82042D02*
D03*
Y66802D02*
D03*
Y69342D02*
D03*
Y71882D02*
D03*
Y74422D02*
D03*
Y76962D02*
D03*
Y79502D02*
D03*
X121750Y87110D02*
D03*
Y84570D02*
D03*
Y82030D02*
D03*
Y66790D02*
D03*
Y69330D02*
D03*
Y71870D02*
D03*
Y74410D02*
D03*
Y76950D02*
D03*
Y79490D02*
D03*
D21*
X107500Y58750D02*
D03*
D22*
X83058Y64262D02*
D03*
X121750Y64250D02*
D03*
D23*
X98250Y67250D02*
D03*
Y64750D02*
D03*
D24*
X106000Y84750D02*
D03*
X91750Y66000D02*
D03*
X101500Y90000D02*
D03*
X105000Y61750D02*
D03*
X112750Y81000D02*
D03*
X94500Y67500D02*
D03*
Y78000D02*
D03*
X87500Y68250D02*
D03*
X90750Y73250D02*
D03*
D25*
X109500Y93500D02*
D03*
M02*
