M48
;Layer_Color=9474304
;FILE_FORMAT=4:3
METRIC,LZ
;TYPE=PLATED
T1F00S00C0.500
T2F00S00C0.700
T3F00S00C1.000
%
T01
X00875Y006825
X009175Y0066
X00945Y00675
X009075Y007325
X00945Y0078
X0105Y006175
X0106Y008475
X01015Y009
X01095Y00935
X011275Y0081
T02
X009825Y006475
Y006725
T03
X012175Y006425
Y006679
Y006933
Y007187
Y007441
Y007695
X01075Y005875
X010505
X010242
X009988
X0083058Y0064262
Y0066802
Y0069342
Y0071882
Y0074422
Y0076962
Y0079502
Y0082042
Y0084582
Y0087122
X012175Y008711
Y008457
Y008203
Y007949
M30
