%FSLAX43Y43*%
%MOMM*%
G71*
G01*
G75*
G04 Layer_Physical_Order=2*
G04 Layer_Color=16711680*
%ADD10R,2.000X1.250*%
%ADD11R,1.250X0.600*%
%ADD12R,1.600X0.900*%
G04:AMPARAMS|DCode=13|XSize=1.56mm|YSize=0.41mm|CornerRadius=0.051mm|HoleSize=0mm|Usage=FLASHONLY|Rotation=0.000|XOffset=0mm|YOffset=0mm|HoleType=Round|Shape=RoundedRectangle|*
%AMROUNDEDRECTD13*
21,1,1.560,0.308,0,0,0.0*
21,1,1.458,0.410,0,0,0.0*
1,1,0.102,0.729,-0.154*
1,1,0.102,-0.729,-0.154*
1,1,0.102,-0.729,0.154*
1,1,0.102,0.729,0.154*
%
%ADD13ROUNDEDRECTD13*%
%ADD14R,0.900X1.600*%
%ADD15R,1.900X1.900*%
%ADD16R,1.450X1.300*%
%ADD17R,1.600X1.400*%
%ADD18R,0.400X1.350*%
%ADD19C,0.254*%
%ADD20C,1.500*%
%ADD21R,1.500X1.500*%
%ADD22R,1.500X1.500*%
%ADD23C,1.000*%
%ADD24C,0.800*%
%ADD25C,0.700*%
G04:AMPARAMS|DCode=26|XSize=1.31mm|YSize=0.93mm|CornerRadius=0.07mm|HoleSize=0mm|Usage=FLASHONLY|Rotation=0.000|XOffset=0mm|YOffset=0mm|HoleType=Round|Shape=RoundedRectangle|*
%AMROUNDEDRECTD26*
21,1,1.310,0.790,0,0,0.0*
21,1,1.171,0.930,0,0,0.0*
1,1,0.140,0.585,-0.395*
1,1,0.140,-0.585,-0.395*
1,1,0.140,-0.585,0.395*
1,1,0.140,0.585,0.395*
%
%ADD26ROUNDEDRECTD26*%
G04:AMPARAMS|DCode=27|XSize=1.31mm|YSize=3.24mm|CornerRadius=0.098mm|HoleSize=0mm|Usage=FLASHONLY|Rotation=0.000|XOffset=0mm|YOffset=0mm|HoleType=Round|Shape=RoundedRectangle|*
%AMROUNDEDRECTD27*
21,1,1.310,3.043,0,0,0.0*
21,1,1.113,3.240,0,0,0.0*
1,1,0.197,0.557,-1.522*
1,1,0.197,-0.557,-1.522*
1,1,0.197,-0.557,1.522*
1,1,0.197,0.557,1.522*
%
%ADD27ROUNDEDRECTD27*%
D14*
X108200Y87500D02*
D03*
X105500D02*
D03*
X108200Y91000D02*
D03*
X105500D02*
D03*
X105300Y82250D02*
D03*
X108000D02*
D03*
X105300Y78500D02*
D03*
X108000D02*
D03*
D19*
Y83750D02*
X109000Y84750D01*
X108000Y82250D02*
Y83750D01*
X106000Y84750D02*
X109000D01*
X105000Y87000D02*
X105500Y87500D01*
X105000Y83500D02*
Y87000D01*
Y83500D02*
X105300Y83200D01*
Y82250D02*
Y83200D01*
Y78500D02*
Y82250D01*
X108000Y78500D02*
Y82250D01*
X105500Y91000D02*
Y92500D01*
X109750Y85500D02*
Y86000D01*
X109000Y84750D02*
X109750Y85500D01*
X108119Y87581D02*
X108200Y87500D01*
X108119Y87581D02*
Y90919D01*
X108200Y91000D01*
X105500Y87500D02*
Y91000D01*
X105250Y90750D02*
X105500Y91000D01*
X103000Y90750D02*
X105250D01*
X108200Y91000D02*
X108250Y91050D01*
Y92250D01*
X109500Y93500D01*
X113155Y87210D02*
X114710D01*
X116500Y89000D01*
Y93500D01*
X115500Y94500D02*
X116500Y93500D01*
X107500Y94500D02*
X115500D01*
X105500Y92500D02*
X107500Y94500D01*
X112750Y93500D02*
X113000Y93250D01*
X109500Y93500D02*
X112750D01*
X113155Y89500D02*
X113155Y89500D01*
X111500Y89500D02*
X113155D01*
X110500Y88500D02*
X111500Y89500D01*
X110500Y86750D02*
Y88500D01*
X109750Y86000D02*
X110500Y86750D01*
X113000Y91945D02*
X113155Y91790D01*
X113000Y91945D02*
Y93250D01*
X88750Y66000D02*
X91750D01*
X101500Y90000D02*
X102250D01*
X103000Y90750D01*
X105000Y61750D02*
X107500D01*
X112750Y67000D01*
Y81000D01*
X94500Y67500D02*
Y78000D01*
X87500Y67250D02*
X88750Y66000D01*
X87500Y67250D02*
Y68250D01*
X98500Y90000D02*
X101500D01*
X90750Y82250D02*
X98500Y90000D01*
X90750Y73250D02*
Y82250D01*
X90750Y73250D02*
X90750Y73250D01*
X85750Y96000D02*
G03*
X85750Y96000I-1000J0D01*
G01*
X122000D02*
G03*
X122000Y96000I-1000J0D01*
G01*
X85750Y58500D02*
G03*
X85750Y58500I-1000J0D01*
G01*
X122250D02*
G03*
X122250Y58500I-1000J0D01*
G01*
X80000Y55000D02*
X125000D01*
Y100000D01*
X80000Y55000D02*
Y100000D01*
X125000D01*
D20*
X99880Y58750D02*
D03*
X102420D02*
D03*
X105050D02*
D03*
X83058Y87122D02*
D03*
Y84582D02*
D03*
Y82042D02*
D03*
Y66802D02*
D03*
Y69342D02*
D03*
Y71882D02*
D03*
Y74422D02*
D03*
Y76962D02*
D03*
Y79502D02*
D03*
X121750Y87110D02*
D03*
Y84570D02*
D03*
Y82030D02*
D03*
Y66790D02*
D03*
Y69330D02*
D03*
Y71870D02*
D03*
Y74410D02*
D03*
Y76950D02*
D03*
Y79490D02*
D03*
D21*
X107500Y58750D02*
D03*
D22*
X83058Y64262D02*
D03*
X121750Y64250D02*
D03*
D23*
X98250Y67250D02*
D03*
Y64750D02*
D03*
D24*
X106000Y84750D02*
D03*
X91750Y66000D02*
D03*
X101500Y90000D02*
D03*
X105000Y61750D02*
D03*
X112750Y81000D02*
D03*
X94500Y67500D02*
D03*
Y78000D02*
D03*
X87500Y68250D02*
D03*
X90750Y73250D02*
D03*
D25*
X109500Y93500D02*
D03*
D26*
X113155Y87210D02*
D03*
Y89500D02*
D03*
Y91790D02*
D03*
D27*
X119845Y89500D02*
D03*
M02*
